<svg xmlns="http://www.w3.org/2000/svg" xmlns:xlink="http://www.w3.org/1999/xlink" version="1.1" width="256" height="256" viewBox="0 0 256 256" xml:space="preserve">

<defs>
</defs>
<g style="stroke: none; stroke-width: 0; stroke-dasharray: none; stroke-linecap: butt; stroke-linejoin: miter; stroke-miterlimit: 10; fill: none; fill-rule: nonzero; opacity: 1;" transform="translate(1.4065934065934016 1.4065934065934016) scale(2.81 2.81)" >
	<path d="M 62.507 89.078 H 27.493 C 12.333 89.078 0 76.745 0 61.586 V 28.414 C 0 13.254 12.333 0.921 27.493 0.921 h 35.014 C 77.667 0.921 90 13.254 90 28.414 v 33.172 C 90 76.745 77.667 89.078 62.507 89.078 z M 27.493 4.921 C 14.539 4.921 4 15.46 4 28.414 v 33.172 C 4 74.54 14.539 85.078 27.493 85.078 h 35.014 C 75.461 85.078 86 74.54 86 61.586 V 28.414 C 86 15.46 75.461 4.921 62.507 4.921 H 27.493 z" style="stroke: none; stroke-width: 1; stroke-dasharray: none; stroke-linecap: butt; stroke-linejoin: miter; stroke-miterlimit: 10; fill: rgb(0,0,0); fill-rule: nonzero; opacity: 1;" transform=" matrix(1 0 0 1 0 0) " stroke-linecap="round" />
	<rect x="2" y="26.41" rx="0" ry="0" width="86" height="4" style="stroke: none; stroke-width: 1; stroke-dasharray: none; stroke-linecap: butt; stroke-linejoin: miter; stroke-miterlimit: 10; fill: rgb(0,0,0); fill-rule: nonzero; opacity: 1;" transform=" matrix(1 0 0 1 0 0) "/>
	<rect x="28.18" y="1.47" rx="0" ry="0" width="4" height="28.76" style="stroke: none; stroke-width: 1; stroke-dasharray: none; stroke-linecap: butt; stroke-linejoin: miter; stroke-miterlimit: 10; fill: rgb(0,0,0); fill-rule: nonzero; opacity: 1;" transform=" matrix(0.8738 -0.4862 0.4862 0.8738 -3.8984 16.6738) "/>
	<rect x="57.41" y="1.08" rx="0" ry="0" width="4" height="29.17" style="stroke: none; stroke-width: 1; stroke-dasharray: none; stroke-linecap: butt; stroke-linejoin: miter; stroke-miterlimit: 10; fill: rgb(0,0,0); fill-rule: nonzero; opacity: 1;" transform=" matrix(0.8738 -0.4862 0.4862 0.8738 -0.1227 30.8628) "/>
	<path d="M 36.903 71.089 c -1.016 0 -2.028 -0.274 -2.941 -0.821 c -1.742 -1.044 -2.783 -2.881 -2.783 -4.912 V 45.837 c 0 -2.031 1.04 -3.867 2.782 -4.911 c 1.743 -1.045 3.852 -1.095 5.643 -0.138 l 18.259 9.759 c 1.867 0.997 3.026 2.932 3.027 5.049 c 0 2.117 -1.159 4.053 -3.026 5.051 l -18.26 9.759 C 38.752 70.861 37.827 71.089 36.903 71.089 z M 36.912 44.105 c -0.412 0 -0.735 0.156 -0.894 0.251 c -0.252 0.151 -0.838 0.598 -0.838 1.48 v 19.519 c 0 0.883 0.587 1.33 0.839 1.48 c 0.251 0.153 0.922 0.457 1.701 0.042 l 18.26 -9.759 c 0.823 -0.44 0.912 -1.212 0.912 -1.523 c 0 -0.311 -0.089 -1.081 -0.912 -1.521 l -18.26 -9.759 C 37.43 44.161 37.155 44.105 36.912 44.105 z" style="stroke: none; stroke-width: 1; stroke-dasharray: none; stroke-linecap: butt; stroke-linejoin: miter; stroke-miterlimit: 10; fill: rgb(0,0,0); fill-rule: nonzero; opacity: 1;" transform=" matrix(1 0 0 1 0 0) " stroke-linecap="round" />
</g>
</svg>